<?xml version="1.0" encoding="UTF-8" standalone="no"?>
<!-- Created with Inkscape (http://www.inkscape.org/) -->

<svg
   width="200mm"
   height="200mm"
   viewBox="0 0 200 200"
   version="1.1"
   id="svg1"
   sodipodi:docname="multilern-logo.svg"
   inkscape:version="1.3.2 (091e20e, 2023-11-25)"
   xmlns:inkscape="http://www.inkscape.org/namespaces/inkscape"
   xmlns:sodipodi="http://sodipodi.sourceforge.net/DTD/sodipodi-0.dtd"
   xmlns:xlink="http://www.w3.org/1999/xlink"
   xmlns="http://www.w3.org/2000/svg"
   xmlns:svg="http://www.w3.org/2000/svg">
  <sodipodi:namedview
     id="namedview1"
     pagecolor="#ffffff"
     bordercolor="#000000"
     borderopacity="0.25"
     inkscape:showpageshadow="2"
     inkscape:pageopacity="0.0"
     inkscape:pagecheckerboard="0"
     inkscape:deskcolor="#d1d1d1"
     inkscape:document-units="mm"
     showguides="true"
     inkscape:zoom="0.43590115"
     inkscape:cx="434.73159"
     inkscape:cy="347.55586"
     inkscape:window-width="1472"
     inkscape:window-height="920"
     inkscape:window-x="0"
     inkscape:window-y="36"
     inkscape:window-maximized="0"
     inkscape:current-layer="layer1">
    <sodipodi:guide
       position="99.748848,216.62481"
       orientation="1,0"
       id="guide1"
       inkscape:locked="false" />
  </sodipodi:namedview>
  <defs
     id="defs1">
    <linearGradient
       id="linearGradient1"
       inkscape:collect="always">
      <stop
         style="stop-color:#00ddff;stop-opacity:1;"
         offset="0"
         id="stop1" />
      <stop
         style="stop-color:#00c3ff;stop-opacity:1;"
         offset="0.50106609"
         id="stop5" />
      <stop
         style="stop-color:#007bff;stop-opacity:1;"
         offset="1"
         id="stop2" />
    </linearGradient>
    <linearGradient
       inkscape:collect="always"
       xlink:href="#linearGradient1"
       id="linearGradient2"
       x1="14.045654"
       y1="114.63305"
       x2="185.7127"
       y2="114.63305"
       gradientUnits="userSpaceOnUse"
       gradientTransform="matrix(1.1601498,0,0,1.1622958,-15.651974,-33.576204)" />
  </defs>
  <g
     inkscape:label="Warstwa 1"
     inkscape:groupmode="layer"
     id="layer1">
    <path
       id="path2-0"
       style="fill:url(#linearGradient2);stroke-width:10.3837"
       d="M 128.36089,0.1487377 C 115.22728,0.14864123 104.5803,10.421913 104.58017,23.09472 c -2.2e-4,12.673041 10.64687,22.94668 23.78072,22.946583 13.13385,1.03e-4 23.78095,-10.273538 23.78073,-22.946583 C 152.14149,10.421909 141.4945,0.14863542 128.36089,0.1487377 Z M 72.084769,0.15954938 C 58.950927,0.15945058 48.303829,10.43309 48.304049,23.106132 c 1.23e-4,12.672808 10.64712,22.946081 23.78072,22.945982 13.133365,-2.21e-4 23.779997,-10.2734 23.78012,-22.945982 C 95.86511,10.433315 85.218377,0.15977021 72.084769,0.15954938 Z M 103.30559,48.577176 c -1.06218,0.01046 -2.1242,0.02901 -3.18588,0.05586 v 0.0078 c -0.992987,-0.02408 -1.986222,-0.0425 -2.979633,-0.05226 -34.729348,0.0046 -68.481456,8.758698 -95.9951857,24.897439 L 0.64308936,111.65446 29.455614,102.51281 c 7.626006,-2.41963 9.750515,2.16205 12.256069,9.77291 L 30.674447,199.29101 H 167.1483 c 0.72755,0 1.4369,0.0743 2.12412,0.20843 0.0227,-0.0743 0.0894,-0.13869 0.0977,-0.21624 L 156.7232,111.87128 c 2.50556,-7.61086 6.64088,-11.78951 14.26687,-9.36988 l 28.81253,9.14164 -0.50181,-38.168426 C 171.78707,57.335865 138.03494,48.581825 103.30559,48.577176 Z"
       inkscape:export-filename="multilern-logo.png"
       inkscape:export-xdpi="96"
       inkscape:export-ydpi="96" />
  </g>
</svg>
